<?xml version="1.0" encoding="utf-8"?>
<svg xmlns="http://www.w3.org/2000/svg">

<symbol  id="faria-chat" viewBox="0 0 20 20">
  <g fill="none" fill-rule="evenodd">
    <path fill="none" d="m0 0h20v20h-20z" />
    <path fill="#859bbb" d="m3.903 7.805c-.521 0-.976-.47-.976-.976 0-.505.455-.975.976-.975.52 0 .976.47.976.975s-.455.976-.976.976zm3.902 0c-.52 0-.975-.47-.975-.976 0-.505.454-.975.975-.975s.976.47.976.975-.455.976-.976.976zm3.903 0c-.522 0-.976-.47-.976-.976 0-.505.454-.975.976-.975.52 0 .975.47.975.975s-.454.976-.975.976zm-5.854 4.39c2.264 1.087 8.78.72 8.78-5.366 0-3.199-3.211-5.853-6.34-5.853-3.934 0-7.319 2.654-7.319 5.853 0 2.032.904 3.67 2.44 4.878v2.44l2.438-1.952zm0 1.464-3.414 2.439v-3.903c-1.645-1.355-2.44-3.147-2.44-5.365 0-3.83 3.768-6.83 8.293-6.83 3.762 0 7.317 2.999 7.317 6.83 0 7.313-7.474 7.284-9.756 6.829zm9.253 1.863c1.893-1.034 3.43-2.758 3.43-4.79 0-1.286-1.104-2.453-1.951-3.415.134-.892-.032-1.924 0-1.463 1.568 1.263 2.927 2.762 2.927 4.74 0 2.22-1.502 4.234-3.415 5.504v3.414l-3.26-2.104c-.49.077-.993.122-1.508.122-2.424 0-3.49-.989-4.988-2.408.135.007.92.042 1.463 0 1.183.788 1.895 1.341 3.525 1.341.562 0 1.318-.26 1.841-.365l1.936 1.584z" /></g>
</symbol>

<symbol id="faria-bars" viewBox="0 0 20 20">
    <g fill="none" fill-rule="evenodd">
        <path fill="#FFF" fill-opacity="0" d="M0 0h20v20H0z"/>
        <path fill="#859BBB" d="M19.464 4.167H.536A.536.536 0 0 1 0 3.63V2.202c0-.295.24-.535.536-.535h18.928c.296 0 .536.24.536.535v1.429c0 .296-.24.536-.536.536zm0 7.143H.536A.536.536 0 0 1 0 10.774V9.345c0-.296.24-.535.536-.535h18.928c.296 0 .536.24.536.535v1.429c0 .296-.24.536-.536.536zm0 7.142H.536A.536.536 0 0 1 0 17.917v-1.429c0-.296.24-.536.536-.536h18.928c.296 0 .536.24.536.536v1.429c0 .296-.24.535-.536.535z"/>
    </g>

</symbol>
<symbol id="faria-blog" viewBox="0 0 20 20">
    <g fill="none" fill-rule="evenodd">
        <path fill="#FFF" fill-opacity="0" d="M0 0h20v20H0z"/>
        <path fill="#859BBB" d="M17.857 0H2.143C.959 0 0 .96 0 2.143v15.714C0 19.041.96 20 2.143 20h15.714C19.041 20 20 19.04 20 17.857V2.143C20 .959 19.04 0 17.857 0zm.714 17.857c0 .394-.32.714-.714.714H2.143a.715.715 0 0 1-.714-.714V2.143c0-.394.32-.714.714-.714h15.714c.394 0 .714.32.714.714v15.714zm-12.142-5a.715.715 0 1 1-.002 1.43.715.715 0 0 1 .002-1.43zm0-1.428a2.143 2.143 0 1 0 0 4.285 2.143 2.143 0 0 0 0-4.285zm8.749 4.285h-.358a.535.535 0 0 1-.536-.506 10.007 10.007 0 0 0-9.492-9.492.535.535 0 0 1-.506-.536v-.358c0-.304.253-.55.558-.536 5.876.28 10.59 4.992 10.87 10.87a.535.535 0 0 1-.536.558zm-3.215 0h-.359a.536.536 0 0 1-.535-.497 6.812 6.812 0 0 0-6.287-6.286.536.536 0 0 1-.496-.535v-.36c0-.312.266-.556.578-.535a8.246 8.246 0 0 1 7.635 7.635.538.538 0 0 1-.536.578z"/>
    </g>

</symbol>
<symbol id="faria-book" viewBox="0 0 20 20">
    <g fill="none" fill-rule="evenodd">
        <path fill="#FFF" fill-opacity="0" d="M0 0h20v20H0z"/>
        <path fill="#859BBB" d="M4.681 0a2.63 2.63 0 0 0-2.68 2.616V17a2.57 2.57 0 0 0 2.615 2.615H19V.001H4.681zm13.011 18.308H4.616a1.308 1.308 0 0 1 0-2.616h13.076v2.616zm0-3.923H4.616a6.98 6.98 0 0 0-1.308.654V2.616a1.765 1.765 0 0 1 1.308-1.308h13.076v13.077z"/>
    </g>

</symbol>
<symbol id="faria-calendar" viewBox="0 0 20 20">
    <g fill="none" fill-rule="evenodd">
        <path fill="#FFF" fill-opacity="0" d="M0 0h20v20H0z"/>
        <path fill="#859BBB" d="M18.273 20H1.728C.772 20 0 19.238 0 18.298V3.478C0 2.538 1.046 1.5 2 1.5h1.5C3.5.795 4.285 0 5 0s1.5.795 1.5 1.5h2C8.5.795 9.285 0 10 0s1.5.795 1.5 1.5h2c0-.705.785-1.5 1.5-1.5s1.5.795 1.5 1.5H18c.954 0 2 1.038 2 1.978v14.82c0 .94-.773 1.702-1.727 1.702zM5.5 1.5c0-.235-.261-.5-.5-.5s-.5.265-.5.5v1c0 .235.261.5.5.5s.5-.265.5-.5v-1zm5 0c0-.235-.261-.5-.5-.5s-.5.265-.5.5v1c0 .235.261.554.5.554s.5-.319.5-.554v-1zm5 0c0-.235-.261-.5-.5-.5s-.5.265-.5.5v1c0 .235.261.5.5.5s.5-.265.5-.5v-1zm3.5 2c0-.47-.523-1-1-1h-1.5c0 .705-.785 1.5-1.5 1.5s-1.477-.667-1.477-1.372L11.5 2.5c0 .705-.785 1.405-1.5 1.405s-1.5-.7-1.5-1.405h-2C6.5 3.205 5.715 4 5 4s-1.5-.795-1.5-1.5H2c-.477 0-1 .53-1 1v2h18v-2zm0 3H1V18c0 .47.523 1 1 1h16c.477 0 1-.53 1-1V6.5zm-4 10c-.715 0-1.5-.795-1.5-1.5s.785-1.5 1.5-1.5 1.5.795 1.5 1.5-.785 1.5-1.5 1.5zm0-2c-.239 0-.5.265-.5.5s.261.5.5.5.5-.265.5-.5-.261-.5-.5-.5zm0-2.5c-.715 0-1.5-.795-1.5-1.5S14.285 9 15 9s1.5.795 1.5 1.5S15.715 12 15 12zm0-2c-.239 0-.5.265-.5.5s.261.5.5.5.5-.265.5-.5-.261-.5-.5-.5zm-5 6.5c-.715 0-1.5-.795-1.5-1.5s.785-1.5 1.5-1.5 1.5.795 1.5 1.5-.785 1.5-1.5 1.5zm0-2c-.239 0-.5.265-.5.5s.261.5.5.5.5-.265.5-.5-.261-.5-.5-.5zm0-2.5c-.715 0-1.5-.795-1.5-1.5s.785-1.564 1.5-1.564 1.5.859 1.5 1.564c0 .705-.785 1.5-1.5 1.5zm0-2c-.239 0-.5.265-.5.5s.261.5.5.5.5-.265.5-.5-.261-.5-.5-.5zm-5 6.5c-.715 0-1.5-.795-1.5-1.5s.785-1.5 1.5-1.5 1.5.795 1.5 1.5-.785 1.5-1.5 1.5zm0-2c-.239 0-.5.265-.5.5s.261.5.5.5.5-.265.5-.5-.261-.5-.5-.5zM5 12c-.715 0-1.5-.795-1.5-1.5S4.285 9 5 9s1.5.795 1.5 1.5S5.715 12 5 12zm0-2c-.239 0-.5.265-.5.5s.261.5.5.5.5-.265.5-.5-.261-.5-.5-.5z"/>
    </g>

</symbol>
<symbol id="faria-clipboard" viewBox="0 0 20 20">
    <g fill="none" fill-rule="evenodd">
        <path fill="#FFF" fill-opacity="0" d="M0 0h20v20H0z"/>
        <path fill="#859BBB" d="M16.072 20H3.928C2.587 20 1.5 18.881 1.5 17.5V5c0-1.38 1.087-2.5 2.429-2.5H6v-1h1.5C8.026.756 8.879 0 10 0s1.974.756 2.5 1.5H14v1h2.072c1.34 0 2.428 1.12 2.428 2.5v12.5c0 1.381-1.087 2.5-2.428 2.5zM13.035 2.5h-1.348c0-.69-.755-1.5-1.687-1.5-.931 0-1.687.81-1.687 1.5H6.965V5h6.07V2.5zM17.5 5c0-.69-.83-1.5-1.5-1.5h-2V6H6V3.5H4c-.67 0-1.5.81-1.5 1.5v12.5c0 .69.83 1.5 1.5 1.5h12c.67 0 1.5-.81 1.5-1.5V5zm-2.689 5.086L8.99 15.813a.652.652 0 0 1-.913 0l-2.888-2.841a.63.63 0 0 1-.189-.45c0-.352.289-.637.645-.637.179 0 .34.071.457.187l2.603 2.613 5.194-5.498A.649.649 0 0 1 14.354 9c.356 0 .645.285.645.636a.63.63 0 0 1-.189.45z"/>
    </g>

</symbol>
<symbol id="faria-clock" viewBox="0 0 20 20">
    <g fill="none" fill-rule="evenodd">
        <path fill="#FFF" fill-opacity="0" d="M0 0h20v20H0z"/>
        <path fill="#859BBB" d="M18.667 3.333c0-1.337-.631-2-2-2L15.333 0h2C18.653 0 20 1.37 20 2.667v2l-1.333-1.334zM20 10c0 1.281 0 3.333-2.667 7.333L20 20h-2l-2-2s-2.667 2-6 2-6-2-6-2l-2 2H0l2.667-2.667C0 13.333 0 11.364 0 10 0 4.644 4.629 0 10 0c5.38 0 10 4.62 10 10zM10 1.333c-4.6 0-8.667 4-8.667 8.667 0 4.695 3.996 8.667 8.667 8.667 4.643 0 8.667-4.059 8.667-8.667 0-4.659-4.02-8.667-8.667-8.667zm4.667 9.334H10A.667.667 0 0 1 9.333 10V4a.667.667 0 0 1 1.334 0v5.333h4a.667.667 0 0 1 0 1.334zM3.333 1.333c-1.36 0-2 .576-2 2L0 4.667v-2C0 1.335 1.395 0 2.667 0h2L3.333 1.333z"/>
    </g>

</symbol>
<symbol id="faria-docsearch" viewBox="0 0 20 20">
    <g fill="none" fill-rule="evenodd">
        <path fill="#FFF" fill-opacity="0" d="M0 0h20v20H0z"/>
        <path fill="#859BBB" d="M19.792 19.792a.913.913 0 0 1-.823.175l-2.995-2.995c.18-.155.843-.814.998-.998l2.995 2.995a.913.913 0 0 1-.175.823zm-6.814-1.822a4.992 4.992 0 1 1 4.987-4.996 4.942 4.942 0 0 1-4.987 4.996zm0-8.985a3.993 3.993 0 1 0 3.994 3.993 3.894 3.894 0 0 0-3.994-3.993zm.999-2.995h-2.995a2.115 2.115 0 0 1-1.997-1.997V.998H1.997c-.539.03-.97.46-.999.999v12.978c.03.539.46.969.999.999h5.49c.3.364.634.698.999.998h-6.49A2.115 2.115 0 0 1 0 14.975V1.997A2.115 2.115 0 0 1 1.997 0h7.986l4.992 4.992v1.996c-.29-.224-.674-.164-.998-.334V5.99zM9.983 1.498v2.495c.03.54.46.97.999.999h2.496L9.983 1.498z"/>
    </g>

</symbol>
<symbol id="faria-documents" viewBox="0 0 20 20">
    <g fill="none" fill-rule="evenodd">
        <path fill="#FFF" fill-opacity="0" d="M0 0h20v20H0z"/>
        <path fill="#859BBB" d="M18 17h-2v-1h2a1 1 0 0 0 1-1V6h-3a2 2 0 0 1-2-2V1H7a1 1 0 0 0-1 1H5a2 2 0 0 1 2-2h8l5 5v10a2 2 0 0 1-2 2zM15 1.5V4a1 1 0 0 0 1 1h2.5L15 1.5zM10 3l5 5v10a2 2 0 0 1-2 2H2a2 2 0 0 1-2-2V5a2 2 0 0 1 2-2h8zm0 1.5V7a1 1 0 0 0 1 1h2.5L10 4.5zM1 5v13a1 1 0 0 0 1 1h11a1 1 0 0 0 1-1V9h-3a2 2 0 0 1-2-2V4H2a1 1 0 0 0-1 1zm2 4.5h4v1H3v-1zm0-3h4v1H3v-1zm9 7H3v-1h9v1zm0 3H3v-1h9v1z"/>
    </g>

</symbol>
<symbol id="faria-envelope" viewBox="0 0 20 20">
    <g fill="none" fill-rule="evenodd">
        <path fill="#FFF" fill-opacity="0" d="M0 0h20v20H0z"/>
        <path fill="#859BBB" d="M2.667 2h14.666A2.728 2.728 0 0 1 20 4.667v10.666A2.728 2.728 0 0 1 17.333 18H2.667A2.728 2.728 0 0 1 0 15.333V4.667A2.728 2.728 0 0 1 2.667 2zM2.22 16.633l5.64-6.413L10 11.947l2.047-1.74 5.733 6.426c-.093.02-15.467.02-15.56 0zm-.887-1.3a1.533 1.533 0 0 0-.026.387l5.566-6.387-5.54-4.666v10.666zM18 3.333L10 10 2 3.333h16zm.667 1.334l-5.54 4.666 5.566 6.387c.008-.13-.001-.26-.026-.387V4.667z"/>
    </g>

</symbol>
<symbol id="faria-help" viewBox="0 0 12 12">
    <g fill="none" fill-rule="evenodd">
        <path fill="#FFF" fill-opacity="0" d="M0 0h12v12H0z"/>
        <path fill="#4B8FFA" d="M6 12A6 6 0 1 0 6 0a6 6 0 0 0 0 12zm-2.502-1.856l1.293-1.292a3.105 3.105 0 0 0 2.418 0l1.293 1.292a4.849 4.849 0 0 1-5.004 0zM7.935 6A1.938 1.938 0 0 1 6 7.936 1.938 1.938 0 0 1 4.064 6 1.938 1.938 0 0 1 6 4.064 1.938 1.938 0 0 1 7.936 6zm2.209 2.502L8.852 7.209a3.105 3.105 0 0 0 0-2.418l1.292-1.293a4.849 4.849 0 0 1 0 5.004zM8.5 1.856L7.21 3.148a3.105 3.105 0 0 0-2.418 0L3.498 1.856a4.848 4.848 0 0 1 5.003 0zM1.856 3.498l1.292 1.293a3.105 3.105 0 0 0 0 2.418L1.856 8.502a4.849 4.849 0 0 1 0-5.003z"/>
    </g>

</symbol>
<symbol id="faria-home" viewBox="0 0 20 20">
    <g fill="none" fill-rule="evenodd">
        <path fill="#FFF" fill-opacity="0" d="M0 0h20v20H0z"/>
        <path fill="#859BBB" d="M16.943 12.234v4.976a.831.831 0 0 1-.834.833h-4.027a.418.418 0 0 1-.417-.416v-3.89a.418.418 0 0 0-.417-.416h-2.5a.418.418 0 0 0-.416.417v3.889c-.001.23-.188.416-.417.416H3.887a.832.832 0 0 1-.833-.833v-4.975c0-.125.055-.244.153-.324l6.527-5.375a.423.423 0 0 1 .532 0l6.527 5.375c.095.08.15.199.15.323zm2.902-2.115l-2.902-2.391v-4.81a.418.418 0 0 0-.416-.416h-1.945a.418.418 0 0 0-.417.416V5.44L11.057 2.88a1.665 1.665 0 0 0-2.118 0L.151 10.12a.418.418 0 0 0-.056.587l.886 1.076c.147.177.409.201.587.055l8.166-6.725a.423.423 0 0 1 .532 0l8.166 6.725c.178.146.44.122.587-.055l.885-1.077a.418.418 0 0 0-.059-.586z"/>
    </g>

</symbol>
<symbol id="faria-log-out" viewBox="0 0 20 20">
    <g fill="none" fill-rule="evenodd">
        <path fill="#FFF" fill-opacity="0" d="M0 0h20v20H0z"/>
        <path fill="#859BBB" d="M19.724 10.796l-6.668 6.666c-.595.595-1.626.179-1.626-.675v-3.81H6.032a.95.95 0 0 1-.953-.952v-3.81a.95.95 0 0 1 .953-.952h5.397v-3.81c0-.85 1.028-1.27 1.627-.674l6.667 6.667a.96.96 0 0 1 0 1.35zM7.619 17.264v-1.587a.478.478 0 0 0-.476-.477H3.81a1.269 1.269 0 0 1-1.27-1.27V6.311a1.269 1.269 0 0 1 1.27-1.27h3.333a.478.478 0 0 0 .476-.476V2.977a.477.477 0 0 0-.476-.476H3.81A3.81 3.81 0 0 0 0 6.311v7.62a3.81 3.81 0 0 0 3.81 3.81h3.333a.477.477 0 0 0 .476-.477z"/>
    </g>

</symbol>
<symbol id="faria-map" viewBox="0 0 20 20">
    <g fill="none" fill-rule="evenodd">
        <path fill="#FFF" fill-opacity="0" d="M0 0h20v20H0z"/>
        <path fill="#859BBB" d="M15 1l5 2.5V18l-5-2-5 2-5-1.5L0 19V4l5-2.5L10 4l5-3zm0 1.5l-5 3L5 3 1 5v12l4-2 5 1.5 5-2 4 1.5V4.5l-4-2zm-4.5 4V15h-1V6.5h1zM5.5 5v8.5h-1V5h1zM16 4.5V13h-1V4.5h1z"/>
    </g>

</symbol>
<symbol id="faria-path" viewBox="0 0 20 16">
    <path fill="#859BBB" fill-rule="nonzero" d="M15 7a.499.499 0 0 0-.464.314l-1.425 3.564L10.486.38a.5.5 0 1 0-.976.023l-2.565 12.82-1.46-5.843A.5.5 0 0 0 5 7H.25a.25.25 0 0 0-.25.25v.5c0 .138.112.25.25.25h4.36l1.905 7.621A.5.5 0 0 0 7 16h.012a.5.5 0 0 0 .478-.402l2.565-12.82 2.46 9.843a.501.501 0 0 0 .95.065L15.338 8h4.411a.25.25 0 0 0 .25-.25v-.5a.25.25 0 0 0-.25-.25H15z"/>

</symbol>
<symbol id="faria-pencil" viewBox="0 0 12 12">
    <g fill="none" fill-rule="evenodd">
        <path fill="#FFF" fill-opacity="0" d="M0 0h12v12H0z"/>
        <path fill="#0762F2" d="M12 11.938H0v-.8h12v.8zm-2.8-8.8l-1.6-1.6 1.2-1.2c.233-.232.756-.476.988-.244l.845.844c.233.232 0 .768-.233 1l-1.2 1.2zM4 8.338l-1.6-1.6 4.8-4.8 1.6 1.6-4.8 4.8zm-2.8 1.2l.8-2.4 1.6 1.6-2.4.8z"/>
    </g>

</symbol>
<symbol id="faria-question" viewBox="0 0 20 20">
    <g fill="none" fill-rule="evenodd">
        <path fill="none" d="M0 0h20v20H0z"/>
        <path fill="#859BBB" d="M9.221 16.344a1.058 1.058 0 0 1-.332-.789c0-.31.111-.573.332-.788.222-.215.481-.323.779-.323.298 0 .558.108.779.323.222.215.332.477.332.788 0 .312-.111.574-.332.79a1.081 1.081 0 0 1-.779.321 1.081 1.081 0 0 1-.779-.322zm.692-3.01H9.84a.678.678 0 0 1-.456-.265.676.676 0 0 1-.138-.52c.04-.442.19-.867.436-1.237.254-.392.615-.83 1.086-1.314.37-.392.652-.734.844-1.021.191-.288.302-.494.334-.618.033-.151.05-.306.046-.461a1.842 1.842 0 0 0-.482-1.353c-.409-.458-.91-.687-1.503-.687a1.867 1.867 0 0 0-1.42.628 2.116 2.116 0 0 0-.585 1.49.701.701 0 0 1-.194.5.627.627 0 0 1-.473.207.627.627 0 0 1-.474-.206.701.701 0 0 1-.194-.5c0-.967.324-1.795.974-2.481.649-.687 1.431-1.037 2.347-1.05.989 0 1.819.373 2.486 1.119.62.693.904 1.497.854 2.413a3.422 3.422 0 0 1-.363 1.373c-.215.432-.633.981-1.252 1.648-.73.759-1.106 1.322-1.13 1.689a.783.783 0 0 1-.223.46.606.606 0 0 1-.447.186zM15.02 1.337a9.875 9.875 0 0 1 3.642 3.642A9.823 9.823 0 0 1 20 10a9.823 9.823 0 0 1-1.338 5.02 9.875 9.875 0 0 1-3.642 3.642A9.823 9.823 0 0 1 10 20a9.823 9.823 0 0 1-5.02-1.338 9.875 9.875 0 0 1-3.642-3.642A9.823 9.823 0 0 1 0 10c0-1.81.446-3.483 1.338-5.02A9.875 9.875 0 0 1 4.98 1.338 9.823 9.823 0 0 1 10 0c1.81 0 3.483.446 5.02 1.338zm1.054 14.736a8.694 8.694 0 0 0 1.856-2.734 8.553 8.553 0 0 0 .663-3.34 8.332 8.332 0 0 0-.683-3.34 8.425 8.425 0 0 0-1.836-2.733A8.694 8.694 0 0 0 13.34 2.07 8.543 8.543 0 0 0 10 1.406a8.332 8.332 0 0 0-3.34.683 8.425 8.425 0 0 0-2.733 1.836A8.694 8.694 0 0 0 2.07 6.659 8.543 8.543 0 0 0 1.406 10c0 1.172.228 2.285.683 3.34a8.425 8.425 0 0 0 1.836 2.733 8.694 8.694 0 0 0 2.734 1.856 8.514 8.514 0 0 0 3.34.664 8.332 8.332 0 0 0 3.34-.683 8.425 8.425 0 0 0 2.733-1.836h.002z"/>
    </g>

</symbol>
<symbol id="faria-resources" viewBox="0 0 20 20">
    <g fill="none" fill-rule="evenodd">
        <path fill="#FFF" fill-opacity="0" d="M0 0h20v20H0z"/>
        <path fill="#859BBB" d="M18.487 10.756H1.513v6.807c0 .51.413.924.924.924h15.126c.51 0 .924-.413.924-.924v-6.807zm0-1.512V2.437a.924.924 0 0 0-.924-.924H2.437a.924.924 0 0 0-.924.924v6.807h16.974zM17.563 20H2.437A2.437 2.437 0 0 1 0 17.563V2.437A2.437 2.437 0 0 1 2.437 0h15.126A2.437 2.437 0 0 1 20 2.437v15.126A2.437 2.437 0 0 1 17.563 20zM7.479 5.714a.756.756 0 0 1 0-1.512h5.042a.756.756 0 0 1 0 1.512H7.479zm0 9.244a.756.756 0 0 1 0-1.513h5.042a.756.756 0 0 1 0 1.513H7.479z"/>
    </g>

</symbol>
<symbol id="faria-stack" viewBox="0 0 20 20">
    <g fill="none" fill-rule="evenodd">
        <path fill="#FFF" fill-opacity="0" d="M0 0h20v20H0z"/>
        <path fill="#859BBB" d="M17 13l3 1.5L10 20 0 14.5 3 13l1 .5-2 1 8 4 8-4-2-1 1-.5zm0-4.5l3 1.5-10 5.5L0 10l3-1.5L4 9l-2 1 8 4 8-4-2-1 1-.5zM10 0l10 5.5L10 11 0 5.5 10 0zm0 1.5l-8 4 8 4 8-4-8-4z"/>
    </g>

</symbol>
<symbol id="faria-user" viewBox="0 0 20 20">
    <g fill="none" fill-rule="evenodd">
        <path fill="#FFF" fill-opacity="0" d="M0 0h20v20H0z"/>
        <path fill="#859BBB" d="M10 0C7.5 0 4.542 2.26 4.5 6.5 4.462 10.391 6.862 14 10 14s5.537-3.609 5.5-7.5C15.459 2.073 12.5 0 10 0zm0 13c-2.631 0-4.5-3.117-4.5-6.5C5.5 2.998 8.123 1 10 1c1.877 0 4.5 1.998 4.5 5.5 0 3.383-1.868 6.5-4.5 6.5zm-4-1c-1.048.582-2 2.718-2 4 0 1.88 1.62 3 3.5 3h5c1.88 0 3.5-1.12 3.5-3 0-1.282-.952-3.418-2-4-.293-.044.319-.75.5-1 1.254.755 2.5 3.43 2.5 5 0 2.385-1.842 4-4.227 4H7.318C4.934 20 3 18.385 3 16c0-1.57 1.247-4.245 2.5-5 .181.25.748.858.5 1z"/>
    </g>

</symbol></svg>
